<svg xmlns:xlink="http://www.w3.org/1999/xlink" width="310" xmlns="http://www.w3.org/2000/svg" height="310" id="screenshot-5b5fcb54-ffaf-80a6-8003-e35bd08b8203" viewBox="-5 -5 310 310" style="-webkit-print-color-adjust: exact;" fill="none" version="1.1"><g id="shape-5b5fcb54-ffaf-80a6-8003-e35bd08b8203" rx="0" ry="0"><g id="shape-5b5fcb54-ffaf-80a6-8003-e35bd08b8204"><g class="fills" id="fills-5b5fcb54-ffaf-80a6-8003-e35bd08b8204"><rect rx="50" ry="50" x="0" y="0" transform="matrix(1.000000, 0.000000, 0.000000, 1.000000, 0.000000, 0.000000)" width="299.99999999999955" height="300" style="fill: rgb(0, 0, 0); fill-opacity: 1;"/></g><g id="strokes-5b5fcb54-ffaf-80a6-8003-e35bd08b8204" class="strokes"><g class="stroke-shape"><rect rx="50" ry="50" x="0" y="0" transform="matrix(1.000000, 0.000000, 0.000000, 1.000000, 0.000000, 0.000000)" width="299.99999999999955" height="300" style="fill: none; stroke-width: 10; stroke: rgb(255, 255, 255); stroke-opacity: 1;"/></g></g></g><g id="shape-5b5fcb54-ffaf-80a6-8003-e35bd08b8205" rx="0" ry="0"><g id="shape-5b5fcb54-ffaf-80a6-8003-e35bd08b8206" rx="0" ry="0"><g id="shape-5b5fcb54-ffaf-80a6-8003-e35bd08b8208"><g class="fills" id="fills-5b5fcb54-ffaf-80a6-8003-e35bd08b8208"><path rx="0" ry="0" d="M57.000,166.000L120.000,88.000L185.000,213.000"/></g><g id="strokes-5b5fcb54-ffaf-80a6-8003-e35bd08b8208" class="strokes"><g class="stroke-shape"><path rx="0" ry="0" d="M57.000,166.000L120.000,88.000L185.000,213.000" style="fill: none; stroke-width: 10; stroke: rgb(255, 255, 255); stroke-opacity: 1;"/></g></g></g><g id="shape-5b5fcb54-ffaf-80a6-8003-e35bd08b8209"><g class="fills" id="fills-5b5fcb54-ffaf-80a6-8003-e35bd08b8209"><path rx="0" ry="0" d="M141.000,128.000L174.000,88.000L239.000,205.000"/></g><g id="strokes-5b5fcb54-ffaf-80a6-8003-e35bd08b8209" class="strokes"><g class="stroke-shape"><path rx="0" ry="0" d="M141.000,128.000L174.000,88.000L239.000,205.000" style="fill: none; stroke-width: 10; stroke: rgb(255, 255, 255); stroke-opacity: 1;"/></g></g></g></g><g id="shape-5b5fcb54-ffaf-80a6-8003-e35bd08b8207" rx="0" ry="0"><g id="shape-5b5fcb54-ffaf-80a6-8003-e35bd08b820a"><g class="fills" id="fills-5b5fcb54-ffaf-80a6-8003-e35bd08b820a"><ellipse rx="17" ry="17" cx="117.00000000000011" cy="88" transform="matrix(1.000000, 0.000000, 0.000000, 1.000000, 0.000000, 0.000000)" style="fill: rgb(255, 255, 255); fill-opacity: 1;"/></g></g><g id="shape-5b5fcb54-ffaf-80a6-8003-e35bd08b820b"><g class="fills" id="fills-5b5fcb54-ffaf-80a6-8003-e35bd08b820b"><ellipse rx="17" ry="17" cx="57.000000000000114" cy="164" transform="matrix(1.000000, 0.000000, 0.000000, 1.000000, 0.000000, 0.000000)" style="fill: rgb(255, 255, 255); fill-opacity: 1;"/></g></g><g id="shape-5b5fcb54-ffaf-80a6-8003-e35bd08b820c"><g class="fills" id="fills-5b5fcb54-ffaf-80a6-8003-e35bd08b820c"><ellipse rx="17" ry="17" cx="185.0000000000001" cy="213" transform="matrix(1.000000, 0.000000, 0.000000, 1.000000, 0.000000, 0.000000)" style="fill: rgb(255, 255, 255); fill-opacity: 1;"/></g></g><g id="shape-5b5fcb54-ffaf-80a6-8003-e35bd08b820d"><g class="fills" id="fills-5b5fcb54-ffaf-80a6-8003-e35bd08b820d"><ellipse rx="17" ry="17" cx="176.0000000000001" cy="88" transform="matrix(1.000000, 0.000000, 0.000000, 1.000000, 0.000000, 0.000000)" style="fill: rgb(255, 255, 255); fill-opacity: 1;"/></g></g><g id="shape-5b5fcb54-ffaf-80a6-8003-e35bd08b820e"><g class="fills" id="fills-5b5fcb54-ffaf-80a6-8003-e35bd08b820e"><ellipse rx="16.999999999999943" ry="17" cx="244.00000000000006" cy="206" transform="matrix(1.000000, 0.000000, 0.000000, 1.000000, 0.000000, 0.000000)" style="fill: rgb(255, 255, 255); fill-opacity: 1;"/></g></g></g></g></g></svg>