<svg xmlns:xlink="http://www.w3.org/1999/xlink" width="310" xmlns="http://www.w3.org/2000/svg" height="310" id="screenshot-5b5fcb54-ffaf-80a6-8003-e35b08b7af3c" viewBox="-5 -5 310 310" style="-webkit-print-color-adjust: exact;" fill="none" version="1.1"><g id="shape-5b5fcb54-ffaf-80a6-8003-e35b08b7af3c" rx="0" ry="0"><g id="shape-5b5fcb54-ffaf-80a6-8003-e35b08b7af3d"><g class="fills" id="fills-5b5fcb54-ffaf-80a6-8003-e35b08b7af3d"><rect rx="50" ry="50" x="0" y="0" transform="matrix(1.000000, 0.000000, 0.000000, 1.000000, 0.000000, 0.000000)" width="299.9999999999998" height="300" style="fill: rgb(0, 0, 0); fill-opacity: 1;"/></g><g id="strokes-5b5fcb54-ffaf-80a6-8003-e35b08b7af3d" class="strokes"><g class="stroke-shape"><rect rx="50" ry="50" x="0" y="0" transform="matrix(1.000000, 0.000000, 0.000000, 1.000000, 0.000000, 0.000000)" width="299.9999999999998" height="300" style="fill: none; stroke-width: 10; stroke: rgb(0, 168, 89); stroke-opacity: 1;"/></g></g></g><g id="shape-5b5fcb54-ffaf-80a6-8003-e35b08b7af3e" rx="0" ry="0"><g id="shape-5b5fcb54-ffaf-80a6-8003-e35b08b7af3f" rx="0" ry="0"><g id="shape-5b5fcb54-ffaf-80a6-8003-e35b08b7af41"><g class="fills" id="fills-5b5fcb54-ffaf-80a6-8003-e35b08b7af41"><path rx="0" ry="0" d="M57.000,166.000L120.000,88.000L185.000,213.000"/></g><g id="strokes-5b5fcb54-ffaf-80a6-8003-e35b08b7af41" class="strokes"><g class="stroke-shape"><path rx="0" ry="0" d="M57.000,166.000L120.000,88.000L185.000,213.000" style="fill: none; stroke-width: 10; stroke: rgb(0, 168, 89); stroke-opacity: 1;"/></g></g></g><g id="shape-5b5fcb54-ffaf-80a6-8003-e35b08b7af42"><g class="fills" id="fills-5b5fcb54-ffaf-80a6-8003-e35b08b7af42"><path rx="0" ry="0" d="M141.000,128.000L174.000,88.000L239.000,205.000"/></g><g id="strokes-5b5fcb54-ffaf-80a6-8003-e35b08b7af42" class="strokes"><g class="stroke-shape"><path rx="0" ry="0" d="M141.000,128.000L174.000,88.000L239.000,205.000" style="fill: none; stroke-width: 10; stroke: rgb(0, 168, 89); stroke-opacity: 1;"/></g></g></g></g><g id="shape-5b5fcb54-ffaf-80a6-8003-e35b08b7af40" rx="0" ry="0"><g id="shape-5b5fcb54-ffaf-80a6-8003-e35b08b7af43"><g class="fills" id="fills-5b5fcb54-ffaf-80a6-8003-e35b08b7af43"><ellipse rx="17" ry="17" cx="117" cy="88" transform="matrix(1.000000, 0.000000, 0.000000, 1.000000, 0.000000, 0.000000)" style="fill: rgb(0, 168, 89); fill-opacity: 1;"/></g></g><g id="shape-5b5fcb54-ffaf-80a6-8003-e35b08b7af44"><g class="fills" id="fills-5b5fcb54-ffaf-80a6-8003-e35b08b7af44"><ellipse rx="17" ry="17" cx="57" cy="164" transform="matrix(1.000000, 0.000000, 0.000000, 1.000000, 0.000000, 0.000000)" style="fill: rgb(0, 168, 89); fill-opacity: 1;"/></g></g><g id="shape-5b5fcb54-ffaf-80a6-8003-e35b08b7af45"><g class="fills" id="fills-5b5fcb54-ffaf-80a6-8003-e35b08b7af45"><ellipse rx="17" ry="17" cx="185" cy="213" transform="matrix(1.000000, 0.000000, 0.000000, 1.000000, 0.000000, 0.000000)" style="fill: rgb(0, 168, 89); fill-opacity: 1;"/></g></g><g id="shape-5b5fcb54-ffaf-80a6-8003-e35b08b7af46"><g class="fills" id="fills-5b5fcb54-ffaf-80a6-8003-e35b08b7af46"><ellipse rx="17" ry="17" cx="176" cy="88" transform="matrix(1.000000, 0.000000, 0.000000, 1.000000, 0.000000, 0.000000)" style="fill: rgb(0, 168, 89); fill-opacity: 1;"/></g></g><g id="shape-5b5fcb54-ffaf-80a6-8003-e35b08b7af47"><g class="fills" id="fills-5b5fcb54-ffaf-80a6-8003-e35b08b7af47"><ellipse rx="17" ry="17" cx="244" cy="206" transform="matrix(1.000000, 0.000000, 0.000000, 1.000000, 0.000000, 0.000000)" style="fill: rgb(0, 168, 89); fill-opacity: 1;"/></g></g></g></g></g></svg>