<svg xmlns:xlink="http://www.w3.org/1999/xlink" width="310" xmlns="http://www.w3.org/2000/svg" height="310" id="screenshot-5b5fcb54-ffaf-80a6-8003-e35b4f158a17" viewBox="-5 -5 310 310" style="-webkit-print-color-adjust: exact;" fill="none" version="1.1"><g id="shape-5b5fcb54-ffaf-80a6-8003-e35b4f158a17" rx="0" ry="0"><g id="shape-5b5fcb54-ffaf-80a6-8003-e35b4f158a18"><g class="fills" id="fills-5b5fcb54-ffaf-80a6-8003-e35b4f158a18"><rect rx="50" ry="50" x="0" y="0" transform="matrix(1.000000, 0.000000, 0.000000, 1.000000, 0.000000, 0.000000)" width="299.9999999999998" height="300" style="fill: rgb(255, 255, 255); fill-opacity: 1;"/></g><g id="strokes-5b5fcb54-ffaf-80a6-8003-e35b4f158a18" class="strokes"><g class="stroke-shape"><rect rx="50" ry="50" x="0" y="0" transform="matrix(1.000000, 0.000000, 0.000000, 1.000000, 0.000000, 0.000000)" width="299.9999999999998" height="300" style="fill: none; stroke-width: 10; stroke: rgb(0, 168, 89); stroke-opacity: 1;"/></g></g></g><g id="shape-5b5fcb54-ffaf-80a6-8003-e35b4f158a19" rx="0" ry="0"><g id="shape-5b5fcb54-ffaf-80a6-8003-e35b4f158a1a" rx="0" ry="0"><g id="shape-5b5fcb54-ffaf-80a6-8003-e35b4f158a1c"><g class="fills" id="fills-5b5fcb54-ffaf-80a6-8003-e35b4f158a1c"><path rx="0" ry="0" d="M57.000,166.000L120.000,88.000L185.000,213.000"/></g><g id="strokes-5b5fcb54-ffaf-80a6-8003-e35b4f158a1c" class="strokes"><g class="stroke-shape"><path rx="0" ry="0" d="M57.000,166.000L120.000,88.000L185.000,213.000" style="fill: none; stroke-width: 10; stroke: rgb(0, 168, 89); stroke-opacity: 1;"/></g></g></g><g id="shape-5b5fcb54-ffaf-80a6-8003-e35b4f158a1d"><g class="fills" id="fills-5b5fcb54-ffaf-80a6-8003-e35b4f158a1d"><path rx="0" ry="0" d="M141.000,128.000L174.000,88.000L239.000,205.000"/></g><g id="strokes-5b5fcb54-ffaf-80a6-8003-e35b4f158a1d" class="strokes"><g class="stroke-shape"><path rx="0" ry="0" d="M141.000,128.000L174.000,88.000L239.000,205.000" style="fill: none; stroke-width: 10; stroke: rgb(0, 168, 89); stroke-opacity: 1;"/></g></g></g></g><g id="shape-5b5fcb54-ffaf-80a6-8003-e35b4f158a1b" rx="0" ry="0"><g id="shape-5b5fcb54-ffaf-80a6-8003-e35b4f158a1e"><g class="fills" id="fills-5b5fcb54-ffaf-80a6-8003-e35b4f158a1e"><ellipse rx="17" ry="17" cx="117" cy="88" transform="matrix(1.000000, 0.000000, 0.000000, 1.000000, 0.000000, 0.000000)" style="fill: rgb(0, 168, 89); fill-opacity: 1;"/></g></g><g id="shape-5b5fcb54-ffaf-80a6-8003-e35b4f158a1f"><g class="fills" id="fills-5b5fcb54-ffaf-80a6-8003-e35b4f158a1f"><ellipse rx="17" ry="17" cx="57" cy="164" transform="matrix(1.000000, 0.000000, 0.000000, 1.000000, 0.000000, 0.000000)" style="fill: rgb(0, 168, 89); fill-opacity: 1;"/></g></g><g id="shape-5b5fcb54-ffaf-80a6-8003-e35b4f158a20"><g class="fills" id="fills-5b5fcb54-ffaf-80a6-8003-e35b4f158a20"><ellipse rx="17" ry="17" cx="185" cy="213" transform="matrix(1.000000, 0.000000, 0.000000, 1.000000, 0.000000, 0.000000)" style="fill: rgb(0, 168, 89); fill-opacity: 1;"/></g></g><g id="shape-5b5fcb54-ffaf-80a6-8003-e35b4f158a21"><g class="fills" id="fills-5b5fcb54-ffaf-80a6-8003-e35b4f158a21"><ellipse rx="17" ry="17" cx="176" cy="88" transform="matrix(1.000000, 0.000000, 0.000000, 1.000000, 0.000000, 0.000000)" style="fill: rgb(0, 168, 89); fill-opacity: 1;"/></g></g><g id="shape-5b5fcb54-ffaf-80a6-8003-e35b4f158a22"><g class="fills" id="fills-5b5fcb54-ffaf-80a6-8003-e35b4f158a22"><ellipse rx="17" ry="17" cx="244" cy="206" transform="matrix(1.000000, 0.000000, 0.000000, 1.000000, 0.000000, 0.000000)" style="fill: rgb(0, 168, 89); fill-opacity: 1;"/></g></g></g></g></g></svg>